# xmcd CD database file
#
# Track frame offsets:
#	150
#	36852
#	69751
#	94418
#	121086
#	155336
#	185606
#	221918
#	262652
#	299138
#
# Disc length: 4406 seconds
#
# Revision: 0
# Processed by: cddbd v1.5.2PL0 Copyright (c) Steve Scherf et al.
# Submitted via: CDex 1.51
#
DISCID=9111340a
DTITLE=Dan Adler - All Things Familiar
DYEAR=2009
DGENRE=Jazz
TTITLE0=If I Were a Jazz Man
TTITLE1=Star Eyes
TTITLE2=You'd Be So Nice to Come Home To
TTITLE3=Talia's Waltz
TTITLE4=All Things Familiar
TTITLE5=Sivan's Samba
TTITLE6=Emily
TTITLE7=Blues for Karen
TTITLE8=I Love You
TTITLE9=Bird's Idea
EXTD=YEAR: 2009
EXTT0=
EXTT1=
EXTT2=
EXTT3=
EXTT4=
EXTT5=
EXTT6=
EXTT7=
EXTT8=
EXTT9=
PLAYORDER=
